<?xml version="1.0" standalone="no"?>
<!DOCTYPE svg PUBLIC "-//W3C//DTD SVG 20010904//EN"
 "http://www.w3.org/TR/2001/REC-SVG-20010904/DTD/svg10.dtd">
<svg version="1.0" xmlns="http://www.w3.org/2000/svg"
 width="500.000000pt" height="500.000000pt" viewBox="0 0 500.000000 500.000000"
 preserveAspectRatio="xMidYMid meet">

<g transform="translate(0.000000,500.000000) scale(0.100000,-0.100000)"
fill="#000000" stroke="none">
<path d="M0 2500 l0 -2500 2500 0 2500 0 0 2500 0 2500 -2500 0 -2500 0 0
-2500z m3497 1008 c546 -546 993 -997 993 -1003 0 -6 -448 -458 -995 -1005
l-995 -995 -1000 1000 -1000 1000 997 997 c549 549 1000 998 1003 998 3 0 452
-447 997 -992z"/>
<path d="M1650 3345 l-845 -845 847 -847 848 -848 72 72 72 72 -415 418 c-434
437 -478 489 -554 648 -212 448 -92 997 287 1309 109 90 209 147 332 192 329
117 693 73 981 -118 45 -30 -42 63 -355 376 -228 229 -417 416 -420 416 -3 0
-385 -380 -850 -845z"/>
<path d="M2510 3296 c-150 -32 -311 -116 -418 -219 -98 -94 -184 -245 -223
-392 -32 -122 -30 -300 5 -418 14 -48 41 -118 60 -155 41 -80 116 -184 130
-180 6 2 46 40 89 84 l79 82 -42 61 c-148 217 -128 517 47 711 178 196 468
249 698 127 l61 -33 90 84 89 84 -30 24 c-49 41 -182 104 -264 125 -99 26
-283 33 -371 15z"/>
<path d="M3324 2998 l-181 -183 34 -61 c107 -199 83 -453 -61 -634 l-36 -45
85 -85 84 -84 27 24 c41 38 118 161 152 242 69 166 80 374 30 545 l-25 82 102
101 101 100 23 -47 c67 -137 101 -296 101 -472 0 -179 -35 -331 -112 -486
l-40 -80 294 292 293 293 -340 340 c-187 187 -342 340 -345 340 -3 0 -87 -82
-186 -182z"/>
<path d="M2573 2825 c-228 -71 -327 -330 -202 -532 l21 -33 129 122 130 122
134 -134 134 -134 21 25 c12 13 33 49 48 79 36 74 39 209 5 282 -75 164 -261
253 -420 203z"/>
<path d="M2402 1967 l-242 -242 253 -253 252 -252 245 245 245 245 -250 250
c-137 138 -252 250 -255 250 -3 0 -114 -109 -248 -243z m368 -362 l-115 -115
-113 113 -113 113 112 118 112 118 116 -116 116 -116 -115 -115z"/>
</g>
</svg>
